<svg width="25" height="24" viewBox="0 0 25 24" fill="none" xmlns="http://www.w3.org/2000/svg">
<path fill-rule="evenodd" clip-rule="evenodd" d="M12.25 3.75C7.69365 3.75 4 7.44365 4 12C4 16.5563 7.69365 20.25 12.25 20.25C16.8063 20.25 20.5 16.5563 20.5 12C20.5 7.44365 16.8063 3.75 12.25 3.75ZM2.5 12C2.5 6.61522 6.86522 2.25 12.25 2.25C17.6348 2.25 22 6.61522 22 12C22 17.3848 17.6348 21.75 12.25 21.75C6.86522 21.75 2.5 17.3848 2.5 12Z" fill="#F75A68"/>
<path fill-rule="evenodd" clip-rule="evenodd" d="M8.54157 12.0415C8.83446 11.7486 9.30934 11.7486 9.60223 12.0415L12.25 14.6893L14.8978 12.0415C15.1907 11.7486 15.6656 11.7486 15.9585 12.0415C16.2514 12.3344 16.2514 12.8093 15.9585 13.1022L12.7804 16.2803C12.4875 16.5732 12.0126 16.5732 11.7197 16.2803L8.54157 13.1022C8.24868 12.8093 8.24868 12.3344 8.54157 12.0415Z" fill="#F75A68"/>
<path fill-rule="evenodd" clip-rule="evenodd" d="M12.2501 7.5C12.6643 7.5 13.0001 7.83579 13.0001 8.25L13.0001 15.75C13.0001 16.1642 12.6643 16.5 12.2501 16.5C11.8358 16.5 11.5001 16.1642 11.5001 15.75L11.5001 8.25C11.5001 7.83579 11.8358 7.5 12.2501 7.5Z" fill="#F75A68"/>
</svg>
