<svg width="22" height="22" viewBox="0 0 22 22" fill="none" xmlns="http://www.w3.org/2000/svg">
<path fill-rule="evenodd" clip-rule="evenodd" d="M9.96875 3.78125C6.55149 3.78125 3.78125 6.55149 3.78125 9.96875C3.78125 13.386 6.55149 16.1562 9.96875 16.1562C13.386 16.1562 16.1562 13.386 16.1562 9.96875C16.1562 6.55149 13.386 3.78125 9.96875 3.78125ZM1.71875 9.96875C1.71875 5.4124 5.4124 1.71875 9.96875 1.71875C14.5251 1.71875 18.2188 5.4124 18.2188 9.96875C18.2188 14.5251 14.5251 18.2188 9.96875 18.2188C5.4124 18.2188 1.71875 14.5251 1.71875 9.96875Z" fill="#00B37E"/>
<path fill-rule="evenodd" clip-rule="evenodd" d="M14.3443 14.3442C14.747 13.9415 15.3999 13.9415 15.8027 14.3442L19.9792 18.5208C20.382 18.9235 20.382 19.5765 19.9792 19.9792C19.5765 20.3819 18.9235 20.3819 18.5208 19.9792L14.3443 15.8026C13.9415 15.3999 13.9415 14.7469 14.3443 14.3442Z" fill="#00B37E"/>
</svg>
